<?xml version="1.0" encoding="UTF-8" standalone="no"?>
<!DOCTYPE svg PUBLIC "-//W3C//DTD SVG 1.1//EN" "http://www.w3.org/Graphics/SVG/1.1/DTD/svg11.dtd">
<svg version="1.1" xmlns="http://www.w3.org/2000/svg" xmlns:xlink="http://www.w3.org/1999/xlink" preserveAspectRatio="xMidYMid meet" viewBox="0 0 600 600" width="600" height="600"><defs><path d="M180 60L180 60.25L191.99 54.3L191.99 61.68L191.99 89.71L191.99 482.37L233.97 503.28L233.97 62.9L233.97 62.9L233.97 33.75L233.97 32.9L235.63 32.9L299.94 0L300.4 0L305.3 2.52L305.35 2.44L595.14 147.87L599.8 150L594.87 150L594.87 150L600 150L599.99 450L599.8 450L599.77 450.02L588.91 455.47L588.97 455.57L300.93 600L299.94 598.26L299.94 600L269.96 585L270.16 585L146.18 523.24L146.23 523.14L120.38 510.24L120.03 510.1L120.03 510.06L119.91 510L120.03 510L120.03 165L78.05 185.92L78.05 450L78.05 488.4L60.05 479.54L60.05 480L11.76 455.75L0.08 450L0.08 176.8L0.08 149.99L0 149.99L48.57 125.7L48.06 125.7L120.03 90L120.03 89.71L122.68 88.67L180 60ZM527.83 314.99L527.84 375L527.83 375L527.83 410.1L527.83 410.1L347.92 502.8L347.92 410.1L347.92 375L299.94 375.01L299.94 543.6L299.94 576L575.8 437.68L575.82 162.67L299.94 24.22L299.94 315L527.83 314.99ZM527.83 210L575.81 210L575.81 270L347.92 270.01L347.92 270L347.92 270L347.92 240L347.92 210.01L347.92 210.01L347.92 97.2L527.83 189.9L527.83 210ZM38.66 149.99L38.66 149.99L33.88 149.99L38.66 149.99Z" id="cgURlxptP"></path></defs><g><g><g><use xlink:href="#cgURlxptP" opacity="1" fill="#aa3fee" fill-opacity="1"></use></g></g></g></svg>