<?xml version="1.0" encoding="UTF-8"?>
<svg xmlns="http://www.w3.org/2000/svg" viewBox="0 0 1855 440" width="1855" height="440">
  <path fill="#36677d" fill-rule="evenodd" d="M 821 227 L 811 282 L 799 314 L 774 355 L 743 387 L 709 410 L 660 430 L 612 439 L 563 440 L 522 435 L 478 424 L 435 407 L 400 388 L 355 357 L 298 312 L 252 267 L 216 224 L 200 201 L 182 183 L 164 170 L 144 162 L 128 162 L 115 165 L 102 172 L 93 181 L 79 211 L 76 227 L 76 246 L 84 281 L 99 313 L 130 357 L 161 388 L 161 395 L 158 399 L 147 399 L 109 378 L 78 355 L 50 327 L 32 303 L 15 271 L 4 237 L 0 212 L 0 172 L 7 136 L 22 100 L 44 69 L 76 41 L 108 22 L 148 8 L 176 4 L 197 4 L 231 9 L 259 18 L 286 31 L 320 55 L 355 92 L 399 155 L 450 219 L 478 248 L 507 271 L 552 296 L 589 308 L 615 312 L 640 312 L 663 308 L 681 301 L 702 287 L 722 266 L 739 234 L 745 207 L 745 175 L 740 150 L 730 123 L 715 97 L 692 70 L 669 52 L 646 40 L 607 30 L 568 31 L 550 35 L 539 40 L 534 40 L 529 36 L 530 26 L 564 8 L 592 1 L 632 0 L 669 7 L 714 26 L 750 51 L 776 78 L 796 108 L 813 149 L 821 192 Z" />
  <path fill="#264759" fill-rule="evenodd" d="M 732 200 L 728 206 L 720 205 L 707 179 L 686 158 L 665 146 L 636 138 L 605 138 L 571 148 L 530 170 L 471 209 L 464 209 L 455 203 L 437 181 L 436 169 L 444 155 L 481 106 L 503 83 L 518 71 L 548 54 L 565 48 L 581 45 L 611 45 L 641 53 L 659 62 L 676 74 L 699 98 L 711 116 L 728 156 L 732 178 Z M 385 405 L 379 412 L 345 426 L 324 430 L 287 430 L 260 425 L 234 416 L 213 406 L 186 389 L 165 372 L 138 344 L 117 315 L 100 283 L 91 254 L 90 230 L 94 209 L 102 193 L 112 183 L 121 178 L 131 177 L 134 180 L 129 203 L 129 230 L 137 261 L 159 298 L 178 318 L 197 333 L 225 349 L 262 362 L 297 367 L 348 368 L 380 389 L 385 395 Z M 1088 382 L 1062 381 L 974 249 L 973 382 L 947 382 L 947 203 L 972 203 L 1061 337 L 1062 203 L 1088 203 Z M 1221 326 L 1134 326 L 1135 337 L 1140 349 L 1153 360 L 1166 363 L 1180 363 L 1197 360 L 1215 353 L 1215 375 L 1206 380 L 1181 385 L 1161 385 L 1140 380 L 1122 367 L 1111 346 L 1108 331 L 1108 301 L 1113 281 L 1119 270 L 1130 259 L 1142 253 L 1154 250 L 1178 250 L 1193 254 L 1209 266 L 1216 278 L 1220 294 Z M 1855 326 L 1768 326 L 1774 348 L 1781 356 L 1788 360 L 1801 363 L 1815 363 L 1835 359 L 1849 353 L 1849 376 L 1843 379 L 1815 385 L 1796 385 L 1777 381 L 1764 374 L 1755 365 L 1746 347 L 1743 334 L 1742 308 L 1748 280 L 1762 261 L 1783 251 L 1813 250 L 1830 255 L 1842 264 L 1851 279 L 1855 296 Z M 1447 344 L 1440 362 L 1432 371 L 1419 379 L 1407 383 L 1369 385 L 1342 380 L 1327 374 L 1327 350 L 1357 360 L 1387 362 L 1399 360 L 1410 355 L 1416 350 L 1421 340 L 1420 325 L 1412 315 L 1352 289 L 1333 273 L 1327 259 L 1326 243 L 1332 224 L 1342 213 L 1356 205 L 1377 200 L 1408 201 L 1437 210 L 1437 234 L 1405 224 L 1375 224 L 1363 228 L 1356 234 L 1352 250 L 1355 258 L 1365 267 L 1410 285 L 1434 300 L 1446 319 Z M 1076 102 L 1068 122 L 1051 135 L 1044 137 L 979 137 L 966 132 L 954 121 L 947 104 L 947 89 L 954 72 L 963 63 L 972 58 L 986 55 L 1037 55 L 1057 61 L 1068 71 L 1074 82 Z M 1576 382 L 1558 382 L 1555 364 L 1541 377 L 1518 385 L 1503 385 L 1491 382 L 1474 369 L 1469 360 L 1465 343 L 1465 252 L 1490 252 L 1491 343 L 1497 356 L 1509 363 L 1526 362 L 1538 355 L 1546 346 L 1551 336 L 1551 252 L 1576 252 Z M 1304 382 L 1277 383 L 1264 378 L 1258 373 L 1253 364 L 1250 351 L 1250 274 L 1228 274 L 1228 259 L 1251 251 L 1259 218 L 1275 218 L 1275 252 L 1303 252 L 1303 274 L 1275 274 L 1275 342 L 1276 350 L 1281 358 L 1289 361 L 1304 360 Z M 1730 382 L 1703 383 L 1690 378 L 1684 373 L 1679 364 L 1676 351 L 1676 274 L 1654 274 L 1654 259 L 1677 251 L 1685 218 L 1701 218 L 1701 252 L 1729 252 L 1729 274 L 1701 274 L 1701 343 L 1703 353 L 1707 358 L 1715 361 L 1730 360 Z M 1576 124 L 1568 137 L 1509 137 L 1503 135 L 1491 128 L 1480 112 L 1478 106 L 1478 87 L 1480 81 L 1491 65 L 1505 57 L 1517 55 L 1575 55 L 1566 71 L 1514 71 L 1501 78 L 1495 88 L 1571 89 L 1562 104 L 1495 105 L 1505 118 L 1514 122 L 1576 122 Z M 1180 86 L 1177 97 L 1168 107 L 1159 111 L 1147 111 L 1176 137 L 1152 137 L 1106 96 L 1154 96 L 1162 90 L 1162 77 L 1154 71 L 1100 71 L 1100 137 L 1083 137 L 1083 56 L 1160 56 L 1168 60 L 1175 67 L 1179 75 Z M 1060 98 L 1059 90 L 1054 80 L 1047 74 L 1039 71 L 983 71 L 974 75 L 968 81 L 963 93 L 964 104 L 968 112 L 976 119 L 984 122 L 1043 121 L 1054 113 Z M 1297 137 L 1277 137 L 1270 123 L 1226 122 L 1218 108 L 1259 108 L 1239 75 L 1237 75 L 1200 136 L 1179 136 L 1228 59 L 1233 55 L 1243 55 L 1253 66 Z M 1637 382 L 1611 382 L 1611 272 L 1599 265 L 1599 252 L 1637 252 Z M 1387 124 L 1378 137 L 1320 137 L 1311 134 L 1297 123 L 1291 113 L 1288 101 L 1291 80 L 1303 64 L 1316 57 L 1328 55 L 1386 55 L 1377 71 L 1325 71 L 1317 74 L 1306 87 L 1305 103 L 1313 116 L 1325 122 L 1387 122 Z M 1482 124 L 1473 137 L 1397 137 L 1393 132 L 1393 56 L 1410 56 L 1410 122 L 1482 122 Z M 1196 305 L 1195 292 L 1190 280 L 1180 273 L 1171 271 L 1156 272 L 1147 276 L 1138 286 L 1134 298 L 1134 305 Z M 1831 305 L 1826 282 L 1819 275 L 1806 271 L 1791 272 L 1779 278 L 1770 292 L 1768 301 L 1768 305 Z M 1637 234 L 1606 234 L 1606 211 L 1637 211 Z" />
  <path fill="#e2c06b" fill-rule="evenodd" d="M 668 169 L 664 175 L 640 187 L 598 217 L 541 269 L 532 268 L 510 255 L 483 230 L 484 219 L 513 197 L 554 172 L 590 156 L 613 151 L 643 152 L 664 158 L 667 161 Z M 303 345 L 301 347 L 292 347 L 252 341 L 232 335 L 214 326 L 193 310 L 175 291 L 157 261 L 157 254 L 165 254 L 191 277 L 218 293 L 237 299 L 258 301 L 286 327 L 299 336 L 303 340 Z" />
  <path fill="#94bfce" fill-rule="evenodd" d="M 713 247 L 708 262 L 694 278 L 680 287 L 655 296 L 641 298 L 597 296 L 565 287 L 560 281 L 561 271 L 611 224 L 643 201 L 677 183 L 692 185 L 703 200 L 712 222 Z M 239 280 L 231 282 L 212 274 L 164 239 L 154 234 L 146 222 L 146 207 L 150 195 L 159 192 L 173 199 L 191 217 L 226 261 L 237 271 Z" />
</svg>
