<?xml version="1.0" encoding="UTF-8" standalone="no"?>
<!DOCTYPE svg PUBLIC "-//W3C//DTD SVG 1.1//EN" "http://www.w3.org/Graphics/SVG/1.1/DTD/svg11.dtd">
<svg version="1.1" xmlns="http://www.w3.org/2000/svg" xmlns:xlink="http://www.w3.org/1999/xlink" preserveAspectRatio="xMidYMid meet" viewBox="0 0 768 806.4" width="768" height="806.4"><defs><path d="M768.53 420.14C768.53 629.9 596.98 800.2 385.68 800.2C174.38 800.2 2.83 629.9 2.83 420.14C2.83 210.38 174.38 40.08 385.68 40.08C596.98 40.08 768.53 210.38 768.53 420.14Z" id="b10gnEq6jG"></path><path d="M470.02 628.11C474.16 628.11 477.52 631.47 477.52 635.61C477.52 651.3 477.52 690.87 477.52 706.55C477.52 710.7 474.16 714.05 470.02 714.05C468.52 714.05 471.52 714.05 470.02 714.05C465.88 714.05 462.52 710.7 462.52 706.55C462.52 690.87 462.52 651.3 462.52 635.61C462.52 631.47 465.88 628.11 470.02 628.11C471.52 628.11 468.52 628.11 470.02 628.11Z" id="c1bJ0nLaUx"></path><path d="M287.26 627.75C291.4 627.75 294.76 631.11 294.76 635.25C294.76 661.32 294.76 732.04 294.76 758.11C294.76 762.26 291.4 765.61 287.26 765.61C285.76 765.61 288.76 765.61 287.26 765.61C283.11 765.61 279.76 762.26 279.76 758.11C279.76 732.04 279.76 661.32 279.76 635.25C279.76 631.11 283.11 627.75 287.26 627.75C288.76 627.75 285.76 627.75 287.26 627.75Z" id="a1jnqj7atb"></path><path d="M428.1 499.62L435.55 499.93L442.92 500.35L450.18 500.89L457.35 501.54L464.41 502.3L471.35 503.16L478.17 504.14L484.87 505.21L491.44 506.39L497.87 507.67L504.15 509.04L510.29 510.51L516.27 512.06L522.09 513.71L527.74 515.44L533.22 517.26L538.52 519.15L543.63 521.13L548.55 523.19L553.28 525.31L557.8 527.51L562.11 529.78L566.21 532.12L570.09 534.52L573.74 536.99L577.15 539.51L580.33 542.09L583.26 544.73L585.94 547.42L588.37 550.16L590.53 552.95L592.42 555.79L594.04 558.66L595.38 561.58L596.43 564.54L597.18 567.53L597.64 570.56L597.8 573.62L597.64 576.68L597.18 579.7L596.43 582.7L595.38 585.65L594.04 588.57L592.42 591.45L590.53 594.29L588.37 597.07L585.94 599.82L583.26 602.51L580.33 605.14L577.15 607.73L573.74 610.25L570.09 612.71L566.21 615.12L562.11 617.45L557.8 619.72L553.28 621.92L548.55 624.05L543.63 626.11L538.52 628.08L533.22 629.98L527.74 631.8L522.09 633.53L516.27 635.17L510.29 636.73L504.15 638.2L497.87 639.57L491.44 640.85L484.87 642.02L478.17 643.1L471.35 644.07L464.41 644.94L457.35 645.7L450.18 646.35L442.92 646.89L435.55 647.31L428.1 647.61L420.56 647.8L412.95 647.86L405.33 647.8L397.8 647.61L390.34 647.31L388.96 647.23L384.58 647.7L377.42 648.35L370.15 648.89L362.79 649.31L355.34 649.61L347.8 649.8L340.19 649.86L332.57 649.8L325.03 649.61L317.58 649.31L310.22 648.89L302.95 648.35L295.79 647.7L288.73 646.94L281.79 646.07L274.96 645.1L268.26 644.02L261.7 642.85L255.27 641.57L248.98 640.2L242.85 638.73L236.86 637.17L231.05 635.53L225.39 633.8L219.92 631.98L214.62 630.08L209.5 628.11L204.58 626.05L199.86 623.92L195.33 621.72L191.02 619.45L186.92 617.12L183.05 614.71L179.4 612.25L175.98 609.73L172.81 607.14L169.87 604.51L167.19 601.82L164.77 599.07L162.61 596.29L160.71 593.45L159.1 590.57L157.76 587.65L156.71 584.7L155.95 581.7L155.49 578.68L155.34 575.62L155.49 572.56L155.95 569.53L156.71 566.54L157.76 563.58L159.1 560.66L160.71 557.79L162.61 554.95L164.77 552.16L167.19 549.42L169.87 546.73L172.81 544.09L175.98 541.51L179.4 538.99L183.05 536.52L186.92 534.12L191.02 531.78L195.33 529.51L199.86 527.31L204.58 525.19L209.5 523.13L214.62 521.15L219.92 519.26L225.39 517.44L231.05 515.71L236.86 514.06L242.85 512.51L248.98 511.04L255.27 509.67L261.7 508.39L268.26 507.21L274.96 506.14L281.79 505.16L288.73 504.3L295.79 503.54L302.95 502.89L310.22 502.35L317.58 501.93L325.03 501.62L332.57 501.44L340.19 501.38L347.8 501.44L355.34 501.62L362.79 501.93L364.18 502.01L368.55 501.54L375.72 500.89L382.98 500.35L390.34 499.93L397.8 499.62L405.33 499.44L412.95 499.38L420.56 499.44L428.1 499.62Z" id="bLNlz22UE"></path><path d="M415.85 41.25L431.29 42.76L446.55 44.87L461.61 47.58L476.46 50.86L491.09 54.71L505.48 59.11L519.63 64.06L533.52 69.53L547.14 75.53L560.48 82.02L573.52 89.01L586.25 96.48L598.67 104.42L610.74 112.82L622.48 121.66L633.85 130.93L644.86 140.62L655.48 150.72L665.71 161.21L675.53 172.09L684.93 183.33L693.9 194.94L702.43 206.89L710.49 219.17L718.09 231.78L725.21 244.69L731.83 257.9L737.95 271.4L743.54 285.17L748.61 299.2L753.13 313.48L757.1 327.99L760.5 342.73L763.31 357.67L765.54 372.82L767.15 388.16L768.15 403.66L768.52 419.34L768.25 435.01L767.35 450.52L765.83 465.87L763.7 481.03L760.98 495.99L757.68 510.75L753.8 525.29L749.37 539.6L744.4 553.66L738.89 567.46L732.86 581L726.32 594.25L719.28 607.21L711.77 619.86L703.78 632.2L695.33 644.2L686.43 655.86L677.1 667.16L674.13 670.5L665.71 661.17L655.48 650.67L644.86 640.58L633.85 630.89L622.48 621.62L610.74 612.78L598.67 604.38L586.25 596.44L573.52 588.97L560.48 581.98L547.14 575.48L533.52 569.49L519.63 564.01L505.48 559.07L491.09 554.67L476.46 550.82L461.61 547.53L446.55 544.83L431.29 542.71L415.85 541.2L400.24 540.31L384.47 540.04L368.7 540.41L353.09 541.4L337.66 543.01L322.42 545.22L307.38 548.02L292.55 551.39L277.94 555.34L263.57 559.83L249.46 564.86L235.6 570.43L222.02 576.5L208.72 583.09L195.73 590.16L183.04 597.71L170.68 605.73L158.66 614.2L146.98 623.11L135.66 632.45L124.72 642.21L114.16 652.38L104 662.93L97.22 670.54L95.82 668.99L86.42 657.75L77.45 646.14L68.93 634.19L60.86 621.91L53.26 609.3L46.14 596.39L39.52 583.18L33.41 569.68L27.81 555.91L22.74 541.88L18.22 527.6L14.25 513.09L10.86 498.35L8.04 483.4L5.82 468.26L4.2 452.92L3.2 437.41L2.83 421.74L3.1 406.07L4 390.55L5.52 375.21L7.65 360.05L10.37 345.08L13.67 330.32L17.55 315.79L21.98 301.48L26.96 287.42L32.47 273.62L38.5 260.08L45.03 246.83L52.07 233.87L59.59 221.22L67.58 208.88L76.02 196.88L84.92 185.22L94.25 173.91L104 162.98L114.16 152.42L124.72 142.26L135.66 132.5L146.98 123.15L158.66 114.24L170.68 105.77L183.04 97.75L195.73 90.2L208.72 83.13L222.02 76.55L235.6 70.47L249.46 64.91L263.57 59.87L277.94 55.38L292.55 51.44L307.38 48.06L322.42 45.26L337.66 43.05L353.09 41.44L368.7 40.45L384.47 40.08L400.24 40.35L415.85 41.25Z" id="f2txETf6pv"></path><path d="M563.12 574.37C563.12 615.34 480.29 648.61 378.27 648.61C276.25 648.61 193.42 615.34 193.42 574.37C193.42 533.39 276.25 500.13 378.27 500.13C480.29 500.13 563.12 533.39 563.12 574.37Z" id="e43KrNKg0J"></path><path d="M580.48 182.52L581.03 182.57L581.57 182.65L582.11 182.75L582.63 182.87L583.15 183L583.67 183.16L584.17 183.34L584.66 183.54L585.15 183.76L585.62 183.99L586.08 184.24L586.53 184.51L586.97 184.79L587.4 185.1L587.82 185.41L588.22 185.75L588.61 186.09L588.99 186.46L589.35 186.83L589.7 187.22L590.03 187.63L590.35 188.04L590.65 188.47L590.94 188.91L591.21 189.36L591.46 189.83L591.69 190.3L591.91 190.78L592.1 191.28L592.28 191.78L592.44 192.29L592.58 192.81L592.7 193.34L592.8 193.87L592.88 194.42L592.93 194.97L592.96 195.52L592.98 196.08L592.98 326L593.24 326.02L594.85 326.2L596.43 326.46L598 326.79L599.55 327.19L601.07 327.65L602.56 328.18L604.04 328.77L605.48 329.43L606.9 330.15L608.28 330.92L609.64 331.76L610.96 332.66L612.25 333.6L613.51 334.61L614.72 335.66L615.91 336.77L617.05 337.93L618.15 339.13L619.21 340.39L620.23 341.68L621.21 343.03L622.14 344.41L623.02 345.84L623.86 347.3L624.64 348.8L625.38 350.34L626.06 351.92L626.7 353.52L627.28 355.17L627.8 356.84L628.26 358.54L628.67 360.27L629.02 362.02L629.31 363.8L629.54 365.6L629.7 367.43L629.8 369.27L629.83 371.14L629.8 373L629.7 374.85L629.54 376.67L629.31 378.48L629.02 380.26L628.67 382.01L628.26 383.74L627.8 385.44L627.28 387.11L626.7 388.75L626.06 390.36L625.38 391.94L624.64 393.48L623.86 394.98L623.02 396.44L622.14 397.87L621.21 399.25L620.23 400.59L619.21 401.89L618.15 403.14L617.05 404.35L615.91 405.51L614.72 406.61L613.51 407.67L612.25 408.67L610.96 409.62L609.64 410.52L608.28 411.35L606.9 412.13L605.48 412.85L604.04 413.51L602.56 414.1L601.07 414.63L599.55 415.09L598 415.49L596.43 415.82L594.85 416.07L593.24 416.26L592.34 416.32L592.27 417.02L591.39 421.93L590.18 426.77L588.64 431.56L586.77 436.27L584.59 440.92L582.09 445.48L579.29 449.98L576.2 454.38L572.81 458.71L569.15 462.94L565.2 467.07L560.99 471.11L556.51 475.05L551.79 478.88L546.81 482.6L541.59 486.2L536.13 489.69L530.45 493.05L524.55 496.29L518.43 499.4L512.11 502.38L505.58 505.22L498.87 507.91L491.96 510.46L484.88 512.87L477.63 515.11L470.2 517.2L462.62 519.13L454.89 520.9L447.02 522.49L444.72 522.9L444.72 550.39L444.72 550.39L444.71 550.69L444.72 550.73L444.77 553.43L444.72 556.14L444.55 558.82L444.29 561.47L443.92 564.09L443.45 566.68L442.88 569.22L442.21 571.73L441.45 574.2L440.6 576.63L439.66 579.01L438.63 581.35L437.51 583.63L436.31 585.87L435.03 588.05L433.66 590.18L432.22 592.25L430.71 594.26L429.12 596.21L427.45 598.09L425.72 599.91L423.93 601.66L422.06 603.34L420.14 604.95L418.15 606.48L416.1 607.94L414 609.32L411.84 610.61L409.63 611.83L407.37 612.96L405.06 614L402.71 614.96L400.31 615.82L397.86 616.59L395.38 617.26L392.86 617.84L390.31 618.31L387.72 618.68L385.1 618.95L382.45 619.12L379.77 619.17L377.09 619.12L374.44 618.95L371.82 618.68L369.23 618.31L366.68 617.84L364.16 617.26L361.68 616.59L359.23 615.82L356.84 614.96L354.48 614L352.17 612.96L349.91 611.83L347.7 610.61L345.54 609.32L343.44 607.94L341.39 606.48L339.41 604.95L337.48 603.34L335.62 601.66L333.82 599.91L332.09 598.09L330.43 596.21L328.84 594.26L327.32 592.25L325.88 590.18L324.51 588.05L323.23 585.87L322.03 583.63L320.91 581.35L319.88 579.01L318.94 576.63L318.09 574.2L317.33 571.73L316.66 569.22L316.09 566.68L315.62 564.09L315.25 561.47L314.99 558.82L314.82 556.14L314.79 554.39L314.7 553.84L314.54 552.13L314.51 551.11L314.5 550.91L314.49 550.39L314.49 550.39L314.49 522.9L312.19 522.49L304.32 520.9L296.58 519.13L289 517.2L281.58 515.11L274.33 512.87L267.24 510.46L260.34 507.91L253.62 505.22L247.1 502.38L240.78 499.4L234.66 496.29L228.76 493.05L223.08 489.69L217.62 486.2L212.4 482.6L207.42 478.88L202.69 475.05L198.22 471.11L194.01 467.07L190.06 462.94L186.4 458.71L183.01 454.38L179.92 449.98L177.12 445.48L174.62 440.92L172.44 436.27L170.57 431.56L169.03 426.77L167.81 421.93L166.94 417.02L166.87 416.4L166.57 416.41L164.93 416.37L163.3 416.26L161.7 416.07L160.11 415.82L158.54 415.49L157 415.09L155.47 414.63L153.98 414.1L152.51 413.51L151.06 412.85L149.64 412.13L148.26 411.35L146.9 410.52L145.58 409.62L144.29 408.67L143.04 407.67L141.82 406.61L140.64 405.51L139.49 404.35L138.39 403.14L137.33 401.89L136.31 400.59L135.33 399.25L134.4 397.87L133.52 396.44L132.69 394.98L131.9 393.48L131.16 391.94L130.48 390.36L129.84 388.75L129.27 387.11L128.74 385.44L128.28 383.74L127.87 382.01L127.52 380.26L127.23 378.48L127.01 376.67L126.84 374.85L126.74 373L126.71 371.14L126.74 369.27L126.84 367.43L127.01 365.6L127.23 363.8L127.52 362.02L127.87 360.27L128.28 358.54L128.74 356.84L129.27 355.17L129.84 353.52L130.48 351.92L131.16 350.34L131.9 348.8L132.69 347.3L133.52 345.84L134.4 344.41L135.33 343.03L136.31 341.68L137.33 340.39L138.39 339.13L139.49 337.93L140.64 336.77L141.82 335.66L143.04 334.61L144.29 333.6L145.58 332.66L146.9 331.76L148.26 330.92L149.64 330.15L151.06 329.43L152.51 328.77L153.98 328.18L155.47 327.65L157 327.19L158.54 326.79L160.11 326.46L161.7 326.2L163.3 326.02L164.93 325.91L166.23 325.88L166.23 196.08L166.24 195.52L166.28 194.97L166.33 194.42L166.41 193.87L166.51 193.34L166.63 192.81L166.77 192.29L166.93 191.78L167.1 191.28L167.3 190.78L167.52 190.3L167.75 189.83L168 189.36L168.27 188.91L168.56 188.47L168.86 188.04L169.18 187.63L169.51 187.22L169.86 186.83L170.22 186.46L170.6 186.09L170.99 185.75L171.39 185.41L171.81 185.1L172.23 184.79L172.67 184.51L173.13 184.24L173.59 183.99L174.06 183.76L174.55 183.54L175.04 183.34L175.54 183.16L176.05 183L176.57 182.87L177.1 182.75L177.64 182.65L178.18 182.57L178.73 182.52L179.28 182.48L179.84 182.47L579.36 182.47L579.92 182.48L580.48 182.52Z" id="e8WZz5ji79"></path><path d="M149.29 159.31C143.98 163.99 138.66 168.67 133.35 173.34C136.83 154.32 149.4 136.55 167.7 124.73C162.31 126.28 156.91 127.83 151.51 129.37C156.14 128.05 163.85 116.95 167.71 113.76C173.78 108.75 180.33 104.14 187.25 99.96C201.1 91.58 216.46 84.94 232.67 80.33C240.6 78.07 255.13 72.95 265.26 74.71C270.62 74 276.1 73.51 281.77 73.43C281.77 73.43 282.24 72.52 283.11 71.07C293.89 33.05 336.54 2.67 383.58 0C374.38 7.16 365.18 14.32 355.98 21.48C389.94 20 423.9 18.51 457.86 17.03C444.08 18.48 432.13 22.12 427.85 31.98C461.26 25.17 497.06 30.99 528.61 42.38C514.87 45.41 501.4 45.17 487.66 48.2C518.58 62.37 549.5 76.54 580.41 90.71C574.99 89.88 569.57 89.06 564.14 88.24C580.6 111.65 597.06 135.07 613.52 158.48C609.3 154.77 604.78 151.31 600.03 148.08C609.04 166.61 613.05 192.54 618.4 249.75C616.91 260.92 609.43 316.78 595.96 417.32C587.25 417.32 582.41 417.32 581.44 417.32C581.44 417.32 603.88 341.75 580.12 302.32C580.12 302.32 582.76 213.61 549.76 209.23C516.75 204.85 432.27 263.99 302.89 203.75C302.89 203.75 225.01 232.23 218.41 239.9C211.81 247.56 238.21 265.09 215.77 286.99C193.32 308.89 168.54 316.22 179.1 418.07C178.14 417.99 170.52 417.39 169.56 417.32C169.56 417.32 163.31 362.48 158.03 305.1C157.15 307.55 156.33 310.01 155.27 312.43C154.32 314.61 152.32 317.23 149.6 316.67C147.05 316.15 146.56 313.37 146.6 311.19C146.85 296.78 147.1 282.38 147.35 267.97C143.5 274.03 139.64 280.08 135.78 286.13C137.85 261.77 139.93 237.42 142 213.06C142 217.56 135.38 221.06 130.46 219.16C136.73 199.21 143.01 179.26 149.29 159.31Z" id="cYvyk07w"></path><path d="M271.66 98.9L272 98.93L272.32 98.98L272.62 99.04L272.9 99.12L273.16 99.21L273.4 99.32L273.62 99.44L274 99.7L274.34 99.96L274.62 100.22L274.86 100.47L275.06 100.72L275.21 100.97L275.33 101.21L275.4 101.45L275.44 101.69L275.44 101.93L275.41 102.16L275.35 102.39L275.26 102.62L275.13 102.84L274.99 103.06L274.81 103.27L274.62 103.49L274.4 103.7L274.17 103.9L273.91 104.1L273.64 104.3L273.36 104.49L273.06 104.68L272.76 104.87L272.44 105.05L272.12 105.23L271.79 105.4L271.46 105.57L271.13 105.73L270.8 105.89L270.47 106.04L270.14 106.19L269.82 106.34L269.51 106.48L269.2 106.61L268.91 106.74L268.62 106.86L268.36 106.98L268.1 107.1L267.87 107.21L267.02 107.61L266.16 108.02L265.3 108.45L264.44 108.88L263.57 109.32L262.7 109.76L261.83 110.21L260.96 110.67L260.08 111.13L259.2 111.59L258.32 112.06L257.44 112.53L256.55 113L255.66 113.48L254.77 113.95L253.88 114.43L252.98 114.9L252.09 115.37L251.19 115.84L250.29 116.31L249.38 116.78L248.48 117.24L247.57 117.69L246.67 118.14L245.76 118.59L244.85 119.02L243.94 119.45L243.03 119.88L242.11 120.29L241.2 120.69L240.28 121.09L239.37 121.47L238.45 121.84L237.53 122.2L237.05 122.39L236.52 122.53L235.38 122.88L234.25 123.25L233.12 123.65L232.01 124.07L232.93 123.8L233.85 123.51L234.77 123.2L235.69 122.88L236.61 122.55L237.05 122.39L237.68 122.21L238.84 121.91L240.01 121.63L241.19 121.38L242.38 121.15L243.58 120.95L244.78 120.77L245.98 120.61L247.19 120.48L248.4 120.37L249.62 120.29L250.84 120.23L252.06 120.19L253.28 120.18L254.5 120.19L255.72 120.23L256.94 120.29L258.15 120.37L259.37 120.48L260.58 120.61L261.78 120.76L262.99 120.94L264.18 121.14L265.37 121.37L266.55 121.62L267.73 121.89L268.89 122.19L270.05 122.5L271.2 122.85L272.33 123.21L273.46 123.6L274.57 124.02L275.67 124.45L276.76 124.91L277.83 125.39L278.89 125.9L277.41 126.32L275.95 126.75L274.5 127.21L273.05 127.69L271.62 128.18L270.19 128.7L268.78 129.23L267.37 129.78L265.98 130.35L264.59 130.94L263.22 131.55L261.86 132.18L260.52 132.82L259.18 133.48L257.86 134.16L256.55 134.86L255.25 135.57L253.97 136.3L252.7 137.05L251.45 137.81L250.21 138.59L248.99 139.39L247.78 140.2L246.59 141.03L245.41 141.87L244.25 142.73L243.1 143.6L241.97 144.49L240.86 145.39L239.77 146.31L238.7 147.24L237.64 148.19L236.6 149.15L235.58 150.12L234.58 151.11L233.6 152.11L232.64 153.12L231.69 154.15L230.77 155.19L229.87 156.24L230.94 155.86L232.02 155.5L233.09 155.13L234.17 154.77L235.25 154.42L236.34 154.07L237.42 153.73L238.51 153.39L239.6 153.06L240.69 152.73L241.79 152.41L242.89 152.1L243.99 151.79L245.09 151.48L246.19 151.18L247.3 150.88L248.41 150.59L249.52 150.31L250.63 150.03L251.74 149.76L252.86 149.49L253.98 149.23L255.1 148.97L256.22 148.71L257.34 148.47L258.47 148.23L259.59 147.99L260.72 147.76L261.85 147.53L262.98 147.31L264.11 147.1L265.25 146.89L266.38 146.69L267.52 146.49L268.66 146.29L269.8 146.11L270.94 145.93L272.08 145.75L273.23 145.58L274.37 145.41L273.29 145.88L272.22 146.37L271.16 146.87L270.11 147.39L269.07 147.92L268.04 148.46L267.02 149.02L266.02 149.6L265.02 150.18L264.04 150.78L263.07 151.4L262.11 152.03L261.16 152.67L260.23 153.32L259.31 153.99L258.4 154.66L257.51 155.35L256.63 156.06L255.76 156.77L254.91 157.5L254.07 158.23L253.25 158.98L252.44 159.74L251.65 160.51L250.87 161.29L250.11 162.09L249.36 162.89L248.63 163.7L247.92 164.52L247.22 165.35L246.54 166.19L245.88 167.04L245.23 167.9L244.6 168.77L243.99 169.65L243.39 170.53L242.82 171.42L242.26 172.32L241.72 173.23L241.2 174.15L245.52 173L252.42 171.16L259.33 169.33L266.24 167.49L271.42 166.11L275.73 164.96L274.93 165.7L272.52 167.9L270.11 170.11L268.51 171.58L265.3 174.52L262.89 176.73L259.68 179.67L252.45 186.28L245.22 192.9L243.62 194.37L247.58 193.83L248.57 193.69L250.55 193.42L260.45 192.05L266.4 191.24L271.35 190.55L283.23 188.92L280.49 190.07L277.76 191.23L275.03 192.41L272.3 193.59L269.59 194.79L266.88 196L264.18 197.21L261.48 198.44L258.79 199.68L256.11 200.93L253.44 202.19L250.77 203.46L248.11 204.74L245.46 206.03L242.81 207.33L240.18 208.64L237.55 209.96L234.92 211.29L232.31 212.63L229.7 213.99L227.1 215.35L224.51 216.72L221.93 218.1L219.35 219.5L216.78 220.9L214.22 222.31L211.67 223.74L209.13 225.17L206.59 226.61L204.07 228.07L201.55 229.53L199.04 231L196.54 232.48L194.04 233.98L191.56 235.48L189.08 236.99L186.61 238.51L184.15 240.04L181.7 241.58L179.26 243.13L179.92 241.35L180.61 239.57L181.32 237.8L182.06 236.04L182.83 234.29L183.63 232.54L184.45 230.8L185.3 229.08L186.17 227.36L187.08 225.65L188.01 223.95L188.96 222.26L189.94 220.58L190.95 218.91L191.98 217.25L193.04 215.6L194.12 213.97L195.23 212.34L196.36 210.73L197.52 209.13L198.7 207.54L199.9 205.96L201.13 204.4L202.38 202.85L203.66 201.31L204.96 199.79L206.28 198.28L207.63 196.79L209 195.3L210.39 193.84L211.8 192.39L213.24 190.95L214.7 189.53L216.18 188.12L217.68 186.73L219.2 185.36L220.75 184L222.31 182.66L223.9 181.34L225.5 180.03L224.11 180.23L222.72 180.47L221.35 180.73L219.98 181.04L218.63 181.37L217.29 181.74L215.96 182.13L214.65 182.56L213.35 183.02L212.07 183.51L210.8 184.03L209.55 184.58L208.32 185.15L207.1 185.75L205.91 186.38L204.74 187.04L203.59 187.72L202.46 188.43L201.35 189.16L200.27 189.92L199.21 190.7L198.18 191.5L197.17 192.32L196.19 193.17L195.24 194.04L194.32 194.93L193.42 195.84L192.56 196.76L191.73 197.71L190.93 198.68L190.16 199.66L189.42 200.66L188.72 201.67L188.06 202.71L187.43 203.76L186.83 204.82L186.28 205.9L185.76 206.99L185.28 208.09L184.84 209.21L185.34 207.33L185.86 205.46L186.41 203.6L186.98 201.74L187.58 199.89L188.21 198.04L188.87 196.21L189.55 194.37L190.25 192.55L190.99 190.73L191.74 188.91L192.53 187.11L193.34 185.31L194.17 183.52L195.03 181.74L195.91 179.97L196.82 178.21L197.76 176.45L198.72 174.7L199.7 172.97L200.71 171.24L201.74 169.52L202.79 167.82L203.87 166.12L204.97 164.43L206.1 162.76L207.25 161.09L208.42 159.44L209.62 157.8L210.84 156.17L212.08 154.55L213.35 152.95L214.63 151.35L215.94 149.77L217.28 148.21L218.63 146.65L220.01 145.11L221.41 143.58L222.83 142.07L224.27 140.57L222.25 141.41L220.25 142.29L218.28 143.22L216.34 144.19L214.44 145.2L212.57 146.25L210.73 147.34L208.93 148.47L207.16 149.64L205.42 150.84L203.73 152.09L202.07 153.36L200.45 154.67L198.87 156.01L197.33 157.39L195.82 158.79L194.37 160.23L192.95 161.69L191.58 163.19L190.25 164.71L188.96 166.26L187.72 167.83L186.53 169.42L185.39 171.05L184.29 172.69L183.24 174.35L182.24 176.04L181.3 177.74L180.4 179.46L179.56 181.2L178.76 182.96L178.03 184.74L177.35 186.52L176.72 188.32L176.15 190.14L175.64 191.97L175.18 193.8L174.78 195.65L174.45 197.51L174.17 199.37L174.12 197.51L174.1 195.65L174.13 193.79L174.19 191.93L174.3 190.07L174.45 188.21L174.63 186.35L174.86 184.5L175.12 182.65L175.42 180.81L175.77 178.97L176.15 177.13L176.57 175.3L177.03 173.48L177.53 171.66L178.06 169.85L178.64 168.06L179.25 166.27L179.91 164.48L180.6 162.71L181.33 160.96L182.09 159.21L182.9 157.47L183.74 155.75L184.62 154.04L185.54 152.35L186.49 150.67L187.48 149L188.51 147.35L189.58 145.72L190.68 144.11L191.82 142.51L193 140.93L194.22 139.37L195.47 137.83L196.75 136.32L198.08 134.82L199.43 133.34L200.83 131.89L202.26 130.45L203.37 129.39L204.49 128.34L205.64 127.3L206.8 126.28L207.99 125.27L209.19 124.28L210.41 123.31L211.65 122.35L212.91 121.4L214.18 120.47L215.47 119.56L216.78 118.67L218.11 117.79L219.45 116.92L220.81 116.08L222.18 115.25L223.56 114.44L224.97 113.65L226.38 112.87L227.81 112.12L229.26 111.38L230.72 110.66L232.19 109.96L233.67 109.27L235.17 108.61L236.67 107.97L238.19 107.34L239.72 106.74L241.27 106.15L242.82 105.58L244.38 105.04L245.95 104.51L247.54 104.01L249.13 103.53L250.73 103.06L252.34 102.62L253.96 102.2L255.58 101.8L257.22 101.43L258.86 101.07L259.1 101.02L259.36 100.96L259.64 100.9L259.94 100.82L260.25 100.75L260.59 100.67L260.93 100.58L261.3 100.49L261.67 100.4L262.06 100.3L262.46 100.21L262.87 100.11L263.28 100.01L263.71 99.91L264.14 99.81L264.57 99.72L265.01 99.62L265.45 99.53L265.9 99.44L266.34 99.36L266.79 99.28L267.23 99.21L267.67 99.14L268.11 99.07L268.54 99.02L268.96 98.97L269.38 98.93L269.79 98.9L270.19 98.88L270.58 98.87L270.95 98.87L271.32 98.88L271.66 98.9ZM407.47 46.81L410.54 46.93L413.62 47.11L416.68 47.35L419.74 47.64L422.79 47.99L425.83 48.41L428.86 48.87L431.88 49.4L434.88 49.98L437.87 50.61L440.84 51.3L443.79 52.05L446.72 52.84L449.62 53.7L452.51 54.6L455.37 55.56L458.2 56.57L461 57.63L463.78 58.74L466.52 59.91L469.24 61.12L471.91 62.39L474.56 63.7L477.16 65.06L479.73 66.48L482.26 67.94L484.75 69.44L487.19 71L489.59 72.6L491.94 74.25L494.25 75.94L496.51 77.68L498.72 79.47L500.87 81.29L498.89 80.36L496.89 79.47L494.85 78.63L492.78 77.85L490.69 77.11L488.58 76.42L486.44 75.78L484.29 75.19L482.11 74.64L479.92 74.15L477.71 73.71L475.48 73.31L473.25 72.97L471 72.67L468.75 72.43L466.48 72.23L464.21 72.08L461.94 71.98L459.67 71.93L457.39 71.93L455.11 71.97L452.84 72.07L450.57 72.22L448.31 72.41L446.05 72.65L443.8 72.95L441.56 73.29L439.34 73.68L437.13 74.12L434.93 74.6L432.75 75.14L430.59 75.73L428.46 76.36L426.34 77.04L424.25 77.78L422.18 78.56L420.14 79.39L418.12 80.26L416.14 81.19L414.19 82.17L417.76 82.91L421.34 83.65L424.92 84.4L428.5 85.16L432.09 85.93L435.68 86.71L439.26 87.5L442.85 88.3L446.43 89.12L450 89.96L453.57 90.81L457.13 91.69L460.68 92.58L464.23 93.5L467.75 94.44L471.27 95.4L474.77 96.39L478.25 97.42L481.71 98.47L485.16 99.55L488.58 100.66L491.99 101.81L495.36 102.99L498.72 104.21L502.04 105.47L505.34 106.77L508.61 108.11L511.85 109.49L515.05 110.92L518.22 112.39L521.36 113.91L524.46 115.48L527.52 117.1L530.54 118.77L533.52 120.5L536.46 122.28L539.36 124.11L542.2 126L545.01 127.95L547.76 129.96L545.89 129.47L544.03 128.97L542.16 128.47L540.29 127.97L538.42 127.48L536.55 126.98L534.68 126.49L532.81 126L530.93 125.52L529.06 125.03L527.18 124.55L525.31 124.08L523.43 123.6L521.55 123.14L519.67 122.67L517.78 122.22L515.9 121.76L514.01 121.32L512.12 120.88L510.23 120.44L508.34 120.02L506.45 119.6L504.55 119.19L502.65 118.78L500.75 118.39L498.85 118L496.94 117.62L495.04 117.26L493.13 116.9L491.21 116.55L489.3 116.21L487.38 115.89L485.46 115.57L483.54 115.27L481.61 114.98L479.68 114.7L477.75 114.43L475.82 114.18L473.88 113.94L471.94 113.71L469.99 113.5L468.05 113.3L466.09 113.12L464.14 112.95L462.18 112.8L460.22 112.67L458.26 112.55L456.29 112.45L454.33 112.37L452.36 112.3L450.39 112.25L448.42 112.22L446.46 112.21L444.49 112.22L442.52 112.25L440.56 112.29L438.6 112.36L436.63 112.45L434.68 112.55L432.72 112.68L430.77 112.83L428.82 113L426.88 113.19L424.94 113.4L423 113.64L421.07 113.9L419.15 114.18L417.23 114.48L415.32 114.81L413.41 115.16L411.51 115.54L409.62 115.94L407.74 116.37L405.87 116.82L404 117.29L402.14 117.79L400.3 118.32L398.46 118.88L396.63 119.46L394.81 120.07L397.61 120.26L400.41 120.47L403.2 120.71L405.99 120.96L408.78 121.24L411.56 121.55L414.34 121.87L417.12 122.21L419.89 122.58L422.66 122.97L425.42 123.38L428.18 123.81L430.93 124.27L433.68 124.74L436.43 125.24L439.16 125.76L441.89 126.3L444.62 126.86L447.34 127.44L450.05 128.04L452.75 128.67L455.45 129.31L458.14 129.98L460.82 130.67L463.5 131.38L466.16 132.11L468.82 132.86L471.47 133.63L474.11 134.42L476.74 135.23L479.36 136.06L481.98 136.92L484.58 137.79L487.17 138.68L489.75 139.6L492.32 140.53L494.88 141.49L497.43 142.46L499.97 143.46L502.5 144.48L494.18 144.59L483.09 144.74L480.32 144.78L469.23 144.93L458.14 145.08L430.41 145.47L422.09 145.58L411 145.73L402.69 145.85L397.14 145.92L391.6 146L393.98 147.33L396.4 148.61L398.84 149.87L401.31 151.08L403.81 152.25L406.33 153.38L408.88 154.48L411.46 155.53L414.06 156.55L416.68 157.52L419.32 158.46L421.98 159.35L424.66 160.2L427.36 161.02L430.07 161.79L432.81 162.52L435.56 163.21L438.32 163.86L441.1 164.47L443.89 165.03L446.69 165.55L449.5 166.04L452.33 166.47L455.16 166.87L458 167.22L460.85 167.53L463.7 167.8L466.56 168.02L469.42 168.2L472.29 168.34L475.16 168.43L478.03 168.48L480.9 168.49L483.77 168.45L486.64 168.36L489.51 168.24L492.37 168.06L495.23 167.84L498.08 167.58L500.93 167.27L498.27 167.92L495.6 168.54L492.92 169.13L490.24 169.71L487.55 170.25L484.85 170.77L482.14 171.26L479.43 171.73L476.7 172.17L473.98 172.58L471.25 172.97L468.51 173.34L465.77 173.67L463.02 173.98L460.27 174.27L457.52 174.53L454.76 174.76L452 174.97L449.23 175.15L446.47 175.3L443.7 175.43L440.93 175.53L438.16 175.61L435.39 175.66L432.62 175.68L429.85 175.68L427.07 175.65L424.3 175.59L421.53 175.51L418.76 175.4L416 175.27L413.23 175.11L410.47 174.92L407.71 174.7L404.95 174.46L402.2 174.2L399.45 173.9L396.71 173.58L393.97 173.24L391.23 172.87L389.96 172.68L388.68 172.49L387.41 172.3L386.14 172.1L384.87 171.9L383.6 171.69L382.33 171.48L381.06 171.27L379.79 171.05L378.53 170.83L377.26 170.61L375.99 170.39L374.73 170.16L373.46 169.94L372.2 169.71L370.93 169.48L369.67 169.25L368.4 169.02L367.14 168.79L365.87 168.56L364.61 168.33L363.34 168.11L362.08 167.88L360.81 167.66L359.55 167.43L358.28 167.22L357.01 167L355.75 166.79L354.48 166.58L353.21 166.37L351.94 166.17L350.67 165.97L349.39 165.78L348.12 165.59L346.85 165.41L345.57 165.23L344.29 165.06L343.02 164.9L341.74 164.74L340.46 164.59L339.17 164.44L337.89 164.31L336.6 164.18L335.31 164.06L334.01 163.95L332.72 163.85L331.42 163.76L330.13 163.68L328.83 163.61L327.53 163.55L326.23 163.5L324.93 163.46L323.63 163.44L322.33 163.42L321.03 163.42L319.73 163.43L318.43 163.45L317.14 163.48L315.84 163.53L314.55 163.59L313.26 163.67L311.97 163.75L310.68 163.86L309.4 163.98L308.12 164.11L306.85 164.26L305.57 164.42L304.3 164.6L303.04 164.8L301.78 165.01L300.52 165.24L299.27 165.48L298.03 165.75L296.79 166.03L295.55 166.33L294.32 166.65L293.1 166.98L291.88 167.34L290.67 167.71L289.47 168.11L298.51 162.39L309.05 155.72L330.14 142.37L337.67 137.61L343.69 133.8L349.72 129.98L348.29 130.15L346.86 130.33L345.44 130.52L344.02 130.72L342.59 130.93L341.18 131.14L339.76 131.37L338.34 131.6L336.93 131.85L335.52 132.1L334.11 132.36L332.71 132.63L331.31 132.91L329.91 133.2L328.51 133.5L327.11 133.81L325.72 134.13L324.33 134.45L322.95 134.79L321.57 135.13L320.19 135.48L318.81 135.84L317.44 136.21L316.07 136.59L314.71 136.98L313.35 137.38L311.99 137.78L310.63 138.19L309.28 138.62L307.94 139.05L306.6 139.49L305.26 139.94L303.93 140.4L302.6 140.86L301.27 141.34L299.95 141.82L298.64 142.31L297.33 142.81L296.02 143.32L294.72 143.84L295.89 141.77L297.09 139.71L298.33 137.67L299.6 135.65L300.91 133.64L302.25 131.64L303.63 129.66L305.04 127.7L306.49 125.76L307.96 123.83L309.48 121.92L311.02 120.03L312.6 118.16L314.21 116.3L315.85 114.46L317.52 112.65L319.22 110.85L320.95 109.08L322.72 107.32L324.51 105.58L326.33 103.87L328.18 102.18L330.06 100.51L331.97 98.86L333.9 97.23L335.87 95.63L337.86 94.05L339.87 92.5L341.92 90.96L343.98 89.46L346.08 87.97L348.2 86.51L350.34 85.08L352.51 83.67L354.71 82.29L356.93 80.94L359.17 79.61L361.43 78.31L363.72 77.04L366.03 75.79L363.99 76.62L361.96 77.46L359.93 78.31L357.91 79.18L355.9 80.05L353.9 80.94L351.9 81.83L349.92 82.74L347.93 83.66L345.96 84.6L344 85.54L342.04 86.49L340.09 87.46L338.15 88.44L336.21 89.42L334.29 90.42L332.37 91.43L330.46 92.45L328.56 93.48L326.67 94.52L324.79 95.58L322.91 96.64L321.05 97.71L319.19 98.8L317.34 99.89L315.5 101L313.67 102.11L311.85 103.24L310.04 104.37L308.24 105.52L306.45 106.68L304.67 107.84L302.89 109.02L301.13 110.21L299.38 111.41L297.64 112.61L295.9 113.83L294.18 115.06L292.47 116.29L290.77 117.54L291.68 116.16L292.62 114.78L293.57 113.41L294.53 112.05L295.51 110.69L296.5 109.34L297.51 108L298.53 106.67L299.57 105.35L300.62 104.03L301.68 102.72L302.76 101.42L303.86 100.12L304.97 98.84L306.09 97.56L307.22 96.29L308.37 95.03L309.53 93.78L310.71 92.54L311.9 91.31L313.1 90.08L314.32 88.86L315.55 87.66L316.79 86.46L318.04 85.27L319.31 84.09L320.59 82.92L321.88 81.76L323.19 80.61L324.51 79.47L325.84 78.34L327.18 77.22L328.54 76.11L329.9 75.01L331.28 73.92L332.67 72.84L334.07 71.77L335.49 70.71L336.91 69.67L338.35 68.63L336.5 69.8L334.02 71.36L330.93 73.32L327.22 75.66L320.42 79.95L316.71 82.3L314.85 83.47L313.62 84.25L313.25 84.49L312.86 84.75L312.45 85.03L312.02 85.34L311.57 85.66L311.1 86L310.62 86.35L310.12 86.72L309.61 87.09L309.09 87.48L308.55 87.88L308 88.29L307.44 88.7L306.88 89.11L306.3 89.52L305.72 89.94L305.13 90.35L304.53 90.77L303.93 91.17L303.33 91.58L302.73 91.97L302.12 92.35L301.51 92.73L300.91 93.09L300.31 93.43L299.71 93.77L299.11 94.08L298.52 94.37L297.93 94.65L297.35 94.9L296.78 95.13L296.22 95.33L295.66 95.5L295.12 95.65L294.59 95.76L294.07 95.85L293.57 95.9L293.08 95.91L292.61 95.89L292.15 95.83L293.55 93.79L295.04 91.79L296.61 89.83L298.27 87.91L300.01 86.02L301.83 84.17L303.72 82.36L305.68 80.59L307.72 78.85L309.82 77.16L311.98 75.51L314.2 73.9L316.48 72.33L318.82 70.8L321.2 69.31L323.64 67.87L326.12 66.47L328.64 65.12L331.2 63.81L333.8 62.54L336.44 61.32L339.1 60.14L341.8 59.01L344.51 57.93L347.25 56.89L350.01 55.91L352.79 54.97L355.58 54.07L358.37 53.23L361.18 52.44L363.99 51.7L366.8 51.01L369.61 50.37L372.42 49.78L375.22 49.24L378.01 48.76L380.79 48.32L383.55 47.95L386.29 47.62L389 47.35L392.07 47.11L395.15 46.93L398.23 46.81L401.31 46.75L404.39 46.75L407.47 46.81Z" id="a12eZrr8mx"></path><path d="M457.71 493.07C457.71 523.39 422.72 548.01 379.63 548.01C336.53 548.01 301.55 523.39 301.55 493.07C301.55 462.74 336.53 438.12 379.63 438.12C422.72 438.12 457.71 462.74 457.71 493.07Z" id="aBMwRfSg2"></path><path d="M529.98 450.38C529.98 495.07 460.73 531.35 375.43 531.35C290.13 531.35 220.88 495.07 220.88 450.38C220.88 405.69 290.13 369.41 375.43 369.41C460.73 369.41 529.98 405.69 529.98 450.38Z" id="gh1SkiYiF"></path><path d="M456.38 447.76C456.38 480.45 420.62 506.99 376.57 506.99C332.52 506.99 296.75 480.45 296.75 447.76C296.75 415.07 332.52 388.53 376.57 388.53C420.62 388.53 456.38 415.07 456.38 447.76Z" id="a18kpzLYNO"></path><path d="M464.52 421.02C464.52 453.71 425.26 480.25 376.89 480.25C328.52 480.25 289.26 453.71 289.26 421.02C289.26 388.33 328.52 361.79 376.89 361.79C425.26 361.79 464.52 388.33 464.52 421.02Z" id="b9aCMgBLgZ"></path><path d="M504.38 401.78C504.38 434.47 447.11 461.01 376.57 461.01C306.02 461.01 248.75 434.47 248.75 401.78C248.75 369.09 306.02 342.55 376.57 342.55C447.11 342.55 504.38 369.09 504.38 401.78Z" id="b77kAxcC3"></path><path d="M409.53 408.58C409.53 417.51 394.76 424.77 376.57 424.77C358.37 424.77 343.6 417.51 343.6 408.58C343.6 399.64 358.37 392.38 376.57 392.38C394.76 392.38 409.53 399.64 409.53 408.58Z" id="a2GzhcxAuE"></path><path d="M344.01 332.39C344.01 348.99 316.61 362.47 282.87 362.47C249.12 362.47 221.73 348.99 221.73 332.39C221.73 315.79 249.12 302.32 282.87 302.32C316.61 302.32 344.01 315.79 344.01 332.39Z" id="c18xLIpvgK"></path><path d="M529.13 332.39C529.13 348.99 501.74 362.47 467.99 362.47C434.25 362.47 406.85 348.99 406.85 332.39C406.85 315.79 434.25 302.32 467.99 302.32C501.74 302.32 529.13 315.79 529.13 332.39Z" id="a1V2xMa3Xo"></path><path d="M490.43 388.09C490.43 406.18 474.73 420.87 455.4 420.87C436.07 420.87 420.38 406.18 420.38 388.09C420.38 370 436.07 355.31 455.4 355.31C474.73 355.31 490.43 370 490.43 388.09Z" id="b4Tan7E4r8"></path><path d="M330.48 388.09C330.48 406.18 314.79 420.87 295.46 420.87C276.13 420.87 260.43 406.18 260.43 388.09C260.43 370 276.13 355.31 295.46 355.31C314.79 355.31 330.48 370 330.48 388.09Z" id="a4b7j3GYHj"></path></defs><g><g><g><use xlink:href="#b10gnEq6jG" opacity="1" fill="#505359" fill-opacity="1"></use></g><g><use xlink:href="#c1bJ0nLaUx" opacity="1" fill="#f4f4f4" fill-opacity="1"></use></g><g><use xlink:href="#a1jnqj7atb" opacity="1" fill="#f4f4f4" fill-opacity="1"></use></g><g><use xlink:href="#bLNlz22UE" opacity="0.5" fill="#323336" fill-opacity="1"></use></g><g><use xlink:href="#f2txETf6pv" opacity="1" fill="#9000ff" fill-opacity="1"></use></g><g><use xlink:href="#e43KrNKg0J" opacity="1" fill="#505359" fill-opacity="1"></use></g><g><use xlink:href="#e8WZz5ji79" opacity="1" fill="#ffdbb4" fill-opacity="1"></use></g><g><use xlink:href="#cYvyk07w" opacity="1" fill="#907400" fill-opacity="1"></use><g><use xlink:href="#cYvyk07w" opacity="1" fill-opacity="0" stroke="#000000" stroke-width="1" stroke-opacity="0"></use></g></g><g><use xlink:href="#a12eZrr8mx" opacity="1" fill="#bc9800" fill-opacity="1"></use><g><use xlink:href="#a12eZrr8mx" opacity="1" fill-opacity="0" stroke="#000000" stroke-width="1" stroke-opacity="0"></use></g></g><g><use xlink:href="#aBMwRfSg2" opacity="0.5" fill="#e1ad87" fill-opacity="1"></use></g><g><use xlink:href="#gh1SkiYiF" opacity="1" fill="#ffdbb4" fill-opacity="1"></use></g><g><g><use xlink:href="#a18kpzLYNO" opacity="1" fill="#a54549" fill-opacity="1"></use></g><g><use xlink:href="#b9aCMgBLgZ" opacity="1" fill="#ffffff" fill-opacity="1"></use></g><g><use xlink:href="#b77kAxcC3" opacity="1" fill="#ffdbb4" fill-opacity="1"></use></g></g><g><g><filter id="shadow10496693" x="326.1" y="374.88" width="100.93" height="76.39" filterUnits="userSpaceOnUse" primitiveUnits="userSpaceOnUse"><feFlood></feFlood><feComposite in2="SourceAlpha" operator="in"></feComposite><feGaussianBlur stdDeviation="1"></feGaussianBlur><feOffset dx="0" dy="9" result="afterOffset"></feOffset><feFlood flood-color="#e1ad87" flood-opacity="0.5"></feFlood><feComposite in2="afterOffset" operator="in"></feComposite><feMorphology operator="dilate" radius="1.5"></feMorphology><feComposite in2="SourceAlpha" operator="out"></feComposite></filter><path d="M409.53 408.58C409.53 417.51 394.76 424.77 376.57 424.77C358.37 424.77 343.6 417.51 343.6 408.58C343.6 399.64 358.37 392.38 376.57 392.38C394.76 392.38 409.53 399.64 409.53 408.58Z" id="hntmuXovv" fill="white" fill-opacity="1" filter="url(#shadow10496693)"></path></g><use xlink:href="#a2GzhcxAuE" opacity="1" fill="#ffdbb4" fill-opacity="1"></use></g><g><g><g><filter id="shadow4070195" x="200.73" y="281.32" width="164.28" height="115.15" filterUnits="userSpaceOnUse" primitiveUnits="userSpaceOnUse"><feFlood></feFlood><feComposite in2="SourceAlpha" operator="in"></feComposite><feGaussianBlur stdDeviation="1"></feGaussianBlur><feOffset dx="0" dy="-13" result="afterOffset"></feOffset><feFlood flood-color="#000000" flood-opacity="0.5"></feFlood><feComposite in2="afterOffset" operator="in"></feComposite><feMorphology operator="dilate" radius="1"></feMorphology><feComposite in2="SourceAlpha" operator="out"></feComposite></filter><path d="M344.01 332.39C344.01 348.99 316.61 362.47 282.87 362.47C249.12 362.47 221.73 348.99 221.73 332.39C221.73 315.79 249.12 302.32 282.87 302.32C316.61 302.32 344.01 315.79 344.01 332.39Z" id="cyMRK2OP5" fill="white" fill-opacity="1" filter="url(#shadow4070195)"></path></g><use xlink:href="#c18xLIpvgK" opacity="1" fill="#ffdbb4" fill-opacity="1"></use></g><g><g><filter id="shadow1687888" x="385.85" y="281.32" width="164.28" height="115.15" filterUnits="userSpaceOnUse" primitiveUnits="userSpaceOnUse"><feFlood></feFlood><feComposite in2="SourceAlpha" operator="in"></feComposite><feGaussianBlur stdDeviation="1"></feGaussianBlur><feOffset dx="0" dy="-13" result="afterOffset"></feOffset><feFlood flood-color="#000000" flood-opacity="0.5"></feFlood><feComposite in2="afterOffset" operator="in"></feComposite><feMorphology operator="dilate" radius="1"></feMorphology><feComposite in2="SourceAlpha" operator="out"></feComposite></filter><path d="M529.13 332.39C529.13 348.99 501.74 362.47 467.99 362.47C434.25 362.47 406.85 348.99 406.85 332.39C406.85 315.79 434.25 302.32 467.99 302.32C501.74 302.32 529.13 315.79 529.13 332.39Z" id="b3uMPJPAKo" fill="white" fill-opacity="1" filter="url(#shadow1687888)"></path></g><use xlink:href="#a1V2xMa3Xo" opacity="1" fill="#ffdbb4" fill-opacity="1"></use></g></g><g><g><g><filter id="shadow7342921" x="400.38" y="335.31" width="110.05" height="119.56" filterUnits="userSpaceOnUse" primitiveUnits="userSpaceOnUse"><feFlood></feFlood><feComposite in2="SourceAlpha" operator="in"></feComposite><feGaussianBlur stdDeviation="0"></feGaussianBlur><feOffset dx="0" dy="-14" result="afterOffset"></feOffset><feFlood flood-color="#030000" flood-opacity="0.5"></feFlood><feComposite in2="afterOffset" operator="in"></feComposite><feMorphology operator="dilate" radius="1"></feMorphology><feComposite in2="SourceAlpha" operator="out"></feComposite></filter><path d="M490.43 388.09C490.43 406.18 474.73 420.87 455.4 420.87C436.07 420.87 420.38 406.18 420.38 388.09C420.38 370 436.07 355.31 455.4 355.31C474.73 355.31 490.43 370 490.43 388.09Z" id="b3z0bnnvan" fill="white" fill-opacity="1" filter="url(#shadow7342921)"></path></g><use xlink:href="#b4Tan7E4r8" opacity="1" fill="#ffdbb4" fill-opacity="1"></use></g><g><g><filter id="shadow4244711" x="240.43" y="335.31" width="110.05" height="119.56" filterUnits="userSpaceOnUse" primitiveUnits="userSpaceOnUse"><feFlood></feFlood><feComposite in2="SourceAlpha" operator="in"></feComposite><feGaussianBlur stdDeviation="0"></feGaussianBlur><feOffset dx="0" dy="-14" result="afterOffset"></feOffset><feFlood flood-color="#000000" flood-opacity="0.5"></feFlood><feComposite in2="afterOffset" operator="in"></feComposite><feMorphology operator="dilate" radius="1"></feMorphology><feComposite in2="SourceAlpha" operator="out"></feComposite></filter><path d="M330.48 388.09C330.48 406.18 314.79 420.87 295.46 420.87C276.13 420.87 260.43 406.18 260.43 388.09C260.43 370 276.13 355.31 295.46 355.31C314.79 355.31 330.48 370 330.48 388.09Z" id="bKdjxCNdB" fill="white" fill-opacity="1" filter="url(#shadow4244711)"></path></g><use xlink:href="#a4b7j3GYHj" opacity="1" fill="#ffdbb4" fill-opacity="1"></use></g></g></g></g></svg>